<svg width="26" height="52" viewBox="0 0 26 52" fill="none" xmlns="http://www.w3.org/2000/svg">
<path d="M2 12.9118H0.821429H2ZM13 2V3.17857V2ZM24 12.9118H25.1786H24ZM24 22.2647H22.8214H24ZM2 22.2647H3.17857H2ZM14.1786 6.67647C14.1786 6.02556 13.6509 5.4979 13 5.4979C12.3491 5.4979 11.8214 6.02556 11.8214 6.67647H14.1786ZM11.8214 11.3529C11.8214 12.0038 12.3491 12.5315 13 12.5315C13.6509 12.5315 14.1786 12.0038 14.1786 11.3529H11.8214ZM2.76344 39.7492C2.26755 39.3275 1.52375 39.3877 1.10212 39.8836C0.680483 40.3795 0.740674 41.1233 1.23656 41.5449L2.76344 39.7492ZM13 50L12.2366 50.8979C12.6767 51.2721 13.3233 51.2721 13.7634 50.8979L13 50ZM24.7634 41.5449C25.2593 41.1233 25.3195 40.3795 24.8979 39.8836C24.4762 39.3877 23.7324 39.3275 23.2366 39.7492L24.7634 41.5449ZM3.17857 12.9118C3.17857 10.3334 4.211 7.85878 6.05184 6.03271L4.39181 4.35926C2.10685 6.62589 0.821429 9.70213 0.821429 12.9118H3.17857ZM6.05184 6.03271C7.893 4.20632 10.3921 3.17857 13 3.17857V0.821429C9.77309 0.821429 6.67645 2.09294 4.39181 4.35926L6.05184 6.03271ZM13 3.17857C15.6079 3.17857 18.107 4.20632 19.9482 6.03271L21.6082 4.35926C19.3235 2.09294 16.2269 0.821429 13 0.821429V3.17857ZM19.9482 6.03271C21.789 7.85878 22.8214 10.3334 22.8214 12.9118H25.1786C25.1786 9.70213 23.8931 6.62589 21.6082 4.35926L19.9482 6.03271ZM22.8214 12.9118V22.2647H25.1786V12.9118H22.8214ZM22.8214 22.2647C22.8214 23.5416 22.5679 24.8061 22.0751 25.9863L24.2502 26.8946C24.863 25.427 25.1786 23.8538 25.1786 22.2647H22.8214ZM22.0751 25.9863C21.5823 27.1665 20.8597 28.2395 19.9482 29.1438L21.6082 30.8172C22.7395 29.695 23.6374 28.3621 24.2502 26.8946L22.0751 25.9863ZM19.9482 29.1438C19.0366 30.048 17.9539 30.7658 16.7616 31.2557L17.6574 33.436C19.1343 32.8292 20.4769 31.9394 21.6082 30.8172L19.9482 29.1438ZM16.7616 31.2557C15.5693 31.7456 14.2911 31.9979 13 31.9979V34.355C14.598 34.355 16.1806 34.0428 17.6574 33.436L16.7616 31.2557ZM13 31.9979C11.7089 31.9979 10.4307 31.7456 9.23841 31.2557L8.34256 33.436C9.81943 34.0428 11.402 34.355 13 34.355V31.9979ZM9.23841 31.2557C8.04613 30.7658 6.96342 30.048 6.05184 29.1438L4.39181 30.8172C5.52312 31.9394 6.86567 32.8292 8.34256 33.436L9.23841 31.2557ZM6.05184 29.1438C5.14028 28.2395 4.4177 27.1665 3.92489 25.9863L1.74976 26.8946C2.36255 28.3621 3.26048 29.695 4.39181 30.8172L6.05184 29.1438ZM3.92489 25.9863C3.43209 24.8061 3.17857 23.5416 3.17857 22.2647H0.821429C0.821429 23.8538 1.13696 25.427 1.74976 26.8946L3.92489 25.9863ZM3.17857 22.2647V12.9118H0.821429V22.2647H3.17857ZM11.8214 6.67647V11.3529H14.1786V6.67647H11.8214ZM1.23656 41.5449L12.2366 50.8979L13.7634 49.1021L2.76344 39.7492L1.23656 41.5449ZM13.7634 50.8979L24.7634 41.5449L23.2366 39.7492L12.2366 49.1021L13.7634 50.8979Z" fill="white"/>
</svg>
